<?xml version="1.0" encoding="UTF-8"?> <svg xmlns="http://www.w3.org/2000/svg" width="29" height="29" viewBox="0 0 29 29" fill="none"> <path d="M14.5 29C22.51 29 29 22.51 29 14.5C29 6.48996 22.51 0 14.5 0C6.48996 0 0 6.48996 0 14.5C0 22.51 6.48996 29 14.5 29ZM6.63496 14.1858L20.6154 8.79546C21.2643 8.56104 21.831 8.95375 21.6207 9.93492L21.6219 9.93371L19.2415 21.1483C19.0651 21.9433 18.5926 22.1367 17.9317 21.7621L14.3067 19.0905L12.5582 20.7749C12.3649 20.9682 12.2018 21.1313 11.8272 21.1313L12.0845 17.4423L18.8029 11.3728C19.0953 11.1155 18.7376 10.9705 18.3522 11.2266L10.0497 16.4539L6.47063 15.3374C5.69367 15.0909 5.67675 14.5604 6.63496 14.1858V14.1858Z" fill="#64701F"></path> </svg> 