<?xml version="1.0" encoding="UTF-8"?> <svg xmlns="http://www.w3.org/2000/svg" width="29" height="29" viewBox="0 0 29 29" fill="none"> <path d="M17.2754 14.5C17.2754 16.0328 16.0328 17.2754 14.5 17.2754C12.9672 17.2754 11.7246 16.0328 11.7246 14.5C11.7246 12.9672 12.9672 11.7246 14.5 11.7246C16.0328 11.7246 17.2754 12.9672 17.2754 14.5Z" fill="#64701F"></path> <path d="M20.9907 9.58952C20.8573 9.228 20.6444 8.90076 20.3679 8.63216C20.0993 8.3556 19.7723 8.14275 19.4105 8.00934C19.1171 7.89539 18.6764 7.75977 17.8646 7.72282C16.9865 7.68277 16.7232 7.67414 14.5 7.67414C12.2767 7.67414 12.0134 7.68255 11.1354 7.7226C10.3237 7.75977 9.88271 7.89539 9.58955 8.00934C9.22781 8.14275 8.90057 8.3556 8.63219 8.63216C8.35563 8.90076 8.14278 9.22778 8.00915 9.58952C7.8952 9.8829 7.75957 10.3239 7.72263 11.1356C7.68258 12.0136 7.67395 12.2769 7.67395 14.5002C7.67395 16.7234 7.68258 16.9867 7.72263 17.8648C7.75957 18.6766 7.8952 19.1173 8.00915 19.4107C8.14278 19.7724 8.35541 20.0995 8.63197 20.3681C8.90057 20.6446 9.22758 20.8575 9.58933 20.9909C9.88271 21.105 10.3237 21.2407 11.1354 21.2776C12.0134 21.3177 12.2764 21.3261 14.4998 21.3261C16.7234 21.3261 16.9867 21.3177 17.8644 21.2776C18.6762 21.2407 19.1171 21.105 19.4105 20.9909C20.1367 20.7108 20.7106 20.1368 20.9907 19.4107C21.1046 19.1173 21.2403 18.6766 21.2774 17.8648C21.3175 16.9867 21.3259 16.7234 21.3259 14.5002C21.3259 12.2769 21.3175 12.0136 21.2774 11.1356C21.2405 10.3239 21.1049 9.8829 20.9907 9.58952V9.58952ZM14.5 18.7755C12.1386 18.7755 10.2243 16.8614 10.2243 14.5C10.2243 12.1386 12.1386 10.2245 14.5 10.2245C16.8612 10.2245 18.7755 12.1386 18.7755 14.5C18.7755 16.8614 16.8612 18.7755 14.5 18.7755ZM18.9445 11.0547C18.3927 11.0547 17.9454 10.6073 17.9454 10.0555C17.9454 9.50368 18.3927 9.0563 18.9445 9.0563C19.4964 9.0563 19.9437 9.50368 19.9437 10.0555C19.9435 10.6073 19.4964 11.0547 18.9445 11.0547Z" fill="#64701F"></path> <path d="M14.5 0C6.4931 0 0 6.4931 0 14.5C0 22.5069 6.4931 29 14.5 29C22.5069 29 29 22.5069 29 14.5C29 6.4931 22.5069 0 14.5 0ZM22.7759 17.9327C22.7357 18.8191 22.5947 19.4242 22.389 19.9539C21.9564 21.0723 21.0723 21.9564 19.9539 22.389C19.4244 22.5947 18.8191 22.7355 17.933 22.7759C17.0451 22.8164 16.7614 22.8262 14.5002 22.8262C12.2388 22.8262 11.9554 22.8164 11.0673 22.7759C10.1812 22.7355 9.57581 22.5947 9.04635 22.389C8.49056 22.1799 7.98743 21.8522 7.57148 21.4285C7.148 21.0128 6.82033 20.5094 6.61124 19.9539C6.40548 19.4244 6.26454 18.8191 6.22427 17.933C6.18334 17.0448 6.17383 16.7612 6.17383 14.5C6.17383 12.2388 6.18334 11.9552 6.22405 11.0673C6.26432 10.1809 6.40504 9.57581 6.6108 9.04613C6.81989 8.49056 7.14778 7.98721 7.57148 7.57148C7.98721 7.14778 8.49056 6.82011 9.04613 6.61102C9.57581 6.40526 10.1809 6.26454 11.0673 6.22405C11.9552 6.18356 12.2388 6.17383 14.5 6.17383C16.7612 6.17383 17.0448 6.18356 17.9327 6.22427C18.8191 6.26454 19.4242 6.40526 19.9539 6.6108C20.5094 6.81989 21.0128 7.14778 21.4287 7.57148C21.8522 7.98743 22.1801 8.49056 22.389 9.04613C22.595 9.57581 22.7357 10.1809 22.7762 11.0673C22.8167 11.9552 22.8262 12.2388 22.8262 14.5C22.8262 16.7612 22.8167 17.0448 22.7759 17.9327V17.9327Z" fill="#64701F"></path> </svg> 